<svg xmlns="http://www.w3.org/2000/svg" width="25" height="24" fill="none">
  <path
    fill="currentColor"
    fillRule="evenodd"
    d="M12.43 17.852 8.21 20.29a2 2 0 0 1-2.733-.732L1.333 12.38a2 2 0 0 1 .732-2.732L6.651 7c.217-.125.448-.206.682-.243V6a2 2 0 0 1 2-2h6a2 2 0 0 1 2 2v.735c.3.019.6.105.876.265l4.586 2.648a2 2 0 0 1 .732 2.732l-4.144 7.177a2 2 0 0 1-2.732.732l-4.22-2.437ZM9.333 6h6v1.982L11.57 14.5H9.333V6Zm-2 8.5V8.916L3.065 11.38l4.144 7.177 3.563-2.057H9.333a2 2 0 0 1-2-2Zm9.876-5.768 4.586 2.648-4.144 7.177-4.585-2.648 4.143-7.177Z"
    clipRule="evenodd"
  />
</svg>
